<svg width="4" height="14" viewBox="0 0 4 14" fill="none" xmlns="http://www.w3.org/2000/svg">
<mask id="path-1-inside-1_38_764" fill="white">
<path fill-rule="evenodd" clip-rule="evenodd" d="M3.5 2C3.5 2.82843 2.82843 3.5 2 3.5C1.17157 3.5 0.5 2.82843 0.5 2C0.5 1.17157 1.17157 0.5 2 0.5C2.82843 0.5 3.5 1.17157 3.5 2ZM3.5 7C3.5 7.82843 2.82843 8.5 2 8.5C1.17157 8.5 0.5 7.82843 0.5 7C0.5 6.17157 1.17157 5.5 2 5.5C2.82843 5.5 3.5 6.17157 3.5 7ZM2 13.5C2.82843 13.5 3.5 12.8284 3.5 12C3.5 11.1716 2.82843 10.5 2 10.5C1.17157 10.5 0.5 11.1716 0.5 12C0.5 12.8284 1.17157 13.5 2 13.5Z"/>
</mask>
<path fill-rule="evenodd" clip-rule="evenodd" d="M3.5 2C3.5 2.82843 2.82843 3.5 2 3.5C1.17157 3.5 0.5 2.82843 0.5 2C0.5 1.17157 1.17157 0.5 2 0.5C2.82843 0.5 3.5 1.17157 3.5 2ZM3.5 7C3.5 7.82843 2.82843 8.5 2 8.5C1.17157 8.5 0.5 7.82843 0.5 7C0.5 6.17157 1.17157 5.5 2 5.5C2.82843 5.5 3.5 6.17157 3.5 7ZM2 13.5C2.82843 13.5 3.5 12.8284 3.5 12C3.5 11.1716 2.82843 10.5 2 10.5C1.17157 10.5 0.5 11.1716 0.5 12C0.5 12.8284 1.17157 13.5 2 13.5Z" fill="#222222"/>
<path d="M2 4.5C3.38071 4.5 4.5 3.38071 4.5 2H2.5C2.5 2.27614 2.27614 2.5 2 2.5V4.5ZM-0.5 2C-0.5 3.38071 0.619288 4.5 2 4.5V2.5C1.72386 2.5 1.5 2.27614 1.5 2H-0.5ZM2 -0.5C0.619288 -0.5 -0.5 0.619288 -0.5 2H1.5C1.5 1.72386 1.72386 1.5 2 1.5V-0.5ZM4.5 2C4.5 0.619288 3.38071 -0.5 2 -0.5V1.5C2.27614 1.5 2.5 1.72386 2.5 2H4.5ZM2 9.5C3.38071 9.5 4.5 8.38071 4.5 7H2.5C2.5 7.27614 2.27614 7.5 2 7.5V9.5ZM-0.5 7C-0.5 8.38071 0.619288 9.5 2 9.5V7.5C1.72386 7.5 1.5 7.27614 1.5 7H-0.5ZM2 4.5C0.619288 4.5 -0.5 5.61929 -0.5 7H1.5C1.5 6.72386 1.72386 6.5 2 6.5V4.5ZM4.5 7C4.5 5.61929 3.38071 4.5 2 4.5V6.5C2.27614 6.5 2.5 6.72386 2.5 7H4.5ZM2.5 12C2.5 12.2761 2.27614 12.5 2 12.5V14.5C3.38071 14.5 4.5 13.3807 4.5 12H2.5ZM2 11.5C2.27614 11.5 2.5 11.7239 2.5 12H4.5C4.5 10.6193 3.38071 9.5 2 9.5V11.5ZM1.5 12C1.5 11.7239 1.72386 11.5 2 11.5V9.5C0.619288 9.5 -0.5 10.6193 -0.5 12H1.5ZM2 12.5C1.72386 12.5 1.5 12.2761 1.5 12H-0.5C-0.5 13.3807 0.619288 14.5 2 14.5V12.5Z" fill="#7A7D81" mask="url(#path-1-inside-1_38_764)"/>
</svg>
